<svg t="1611709949377" class="icon" viewBox="0 0 1024 1024" version="1.1" xmlns="http://www.w3.org/2000/svg" p-id="1313" width="200" height="200"><path d="M474.3 480.7L113.9 836.6c-20.2 19-21.2 50.7-2.3 71 0.7 0.8 1.5 1.5 2.3 2.3 9.5 10.4 23 16.1 37.1 15.7 14.1 0.4 27.6-5.3 37.1-15.7l323.3-319.1 323.3 319.1c9.5 10.4 23.1 16.1 37.1 15.7 14.1 0.4 27.6-5.3 37.1-15.7 20.2-19 21.2-50.7 2.3-71-0.7-0.8-1.5-1.5-2.3-2.3L548.5 480.7c-19.9-20.5-52.6-21-73.1-1.1-0.4 0.3-0.8 0.7-1.1 1.1z m0-366.3L113.9 470.2c-20.2 19-21.2 50.7-2.3 71 0.7 0.8 1.5 1.5 2.3 2.3 9.5 10.4 23 16.1 37.1 15.7 14.1 0.4 27.6-5.3 37.1-15.6l323.3-319.2 323.3 319.2c9.5 10.4 23.1 16.1 37.1 15.6 14 0.4 27.6-5.3 37.1-15.6 20.2-19 21.2-50.7 2.3-71-0.7-0.8-1.5-1.5-2.3-2.3L548.5 114.4c-19.9-20.5-52.6-21-73.1-1.1l-1.1 1.1z" p-id="1314" fill="#ffffff"></path></svg>