<svg t="1611572715884" class="icon" viewBox="0 0 1024 1024" version="1.1" xmlns="http://www.w3.org/2000/svg" p-id="1636" width="200" height="200"><path d="M174.6 791.7a83 69 0 1 0 166 0 83 69 0 1 0-166 0Z" fill="#E74291" p-id="1637"></path><path d="M645.1 695.7a83 69 0 1 0 166 0 83 69 0 1 0-166 0Z" fill="#E74291" p-id="1638"></path><path d="M363.7 288.1l357.5-70.9c8.9-1.8 17.1 5.1 17.1 14.3V318L359 390.7l4.7-102.6z" fill="#E74291" p-id="1639"></path><path d="M834.3 662.5V193.1c0-14.7-6.5-28.5-17.7-37.9-11.3-9.4-26-13.3-40.4-10.7l-402.4 72.7c-23.5 4.2-40.6 24.7-40.6 48.6V678c-21.7-23.5-52.7-38.2-87.1-38.2-65.3 0-118.5 53.2-118.5 118.5s53.2 118.5 118.5 118.5 118.5-53.2 118.5-118.5c0-1.8 0-3.6-0.1-5.4 0.5-1.5 0.7-3.1 0.7-4.7V411.4l437.1-79.8v255c-21.6-23-52.3-37.5-86.4-37.5-65.3 0-118.5 53.2-118.5 118.5s53.2 118.5 118.5 118.5 118.5-53.2 118.5-118.5c0-1.7 0-3.4-0.1-5.1zM246.2 844.8c-47.7 0-86.5-38.8-86.5-86.5s38.8-86.5 86.5-86.5 86.5 38.8 86.5 86.5-38.8 86.5-86.5 86.5z m119.1-466v-113c0-8.4 6-15.6 14.3-17.1L781.9 176c5.1-0.9 10.2 0.4 14.2 3.8s6.2 8.1 6.2 13.3v106l-437 79.7zM716 754.1c-47.7 0-86.5-38.8-86.5-86.5s38.8-86.5 86.5-86.5c46.2 0 84 36.4 86.4 82v0.4c0 0.4 0 0.8 0.1 1.2 0 1 0.1 1.9 0.1 2.9-0.2 47.7-38.9 86.5-86.6 86.5z" fill="#4C3441" p-id="1640"></path></svg>